<?xml version="1.0" encoding="iso-8859-1"?>
<!-- Generator: Adobe Illustrator 16.0.0, SVG Export Plug-In . SVG Version: 6.00 Build 0)  -->
<!DOCTYPE svg PUBLIC "-//W3C//DTD SVG 1.1//EN" "http://www.w3.org/Graphics/SVG/1.1/DTD/svg11.dtd">
<svg version="1.1" id="Layer_1" xmlns="http://www.w3.org/2000/svg" xmlns:xlink="http://www.w3.org/1999/xlink" x="0px" y="0px"
	 width="57.424px" height="30.936px" viewBox="0 0 57.424 30.936" enable-background="new 0 0 57.424 30.936" xml:space="preserve">
<path fill="#F6F6F6" d="M46.404,8.897c-1.906,0-3.699,0.487-5.262,1.341C40.998,4.56,36.354,0,30.641,0
	C25.172,0,20.68,4.179,20.18,9.517c-0.813-0.555-1.797-0.879-2.855-0.879c-2.461,0-4.512,1.747-4.982,4.069l0,0
	c0,0-1.92-0.477-2.574-0.546C6.301,11.799,0,15.031,0,20.495c0,0,0,10.44,7.156,10.017h36.223c0.963,0.273,1.977,0.424,3.025,0.424
	c1.109,0,2.18-0.166,3.189-0.471c1.094-0.146,2.104-0.645,2.957-1.402c2.939-1.979,4.873-5.336,4.873-9.146
	C57.424,13.831,52.49,8.897,46.404,8.897z"/>
<g>
</g>
<g>
</g>
<g>
</g>
<g>
</g>
<g>
</g>
<g>
</g>
<g>
</g>
<g>
</g>
<g>
</g>
<g>
</g>
<g>
</g>
</svg>
